<svg xmlns="http://www.w3.org/2000/svg" width="119" height="45" viewBox="0 0 119 45">
  <defs>
    <style>
      .cls-1 {
        fill: #fff;
        fill-rule: evenodd;
      }
    </style>
  </defs>
  <path id="logo" class="cls-1" d="M652.81,663.416a14.151,14.151,0,0,0-3.283-.236c-3.054-.041-6.1.221-9.145,0.461a2.192,2.192,0,0,0-1.178.3q-4.59,3.168-8.937,6.68a67.9,67.9,0,0,0-9.8,9.485,19.73,19.73,0,0,0-3.152,5.215,5.4,5.4,0,0,0-.419,2.247l-0.262.1c0.052,0.055.155,0.164,0.207,0.217,2.125-5.212,6.283-9.192,10.469-12.754a100.773,100.773,0,0,1,12.532-8.75,2.013,2.013,0,0,1,.952-0.345,43.713,43.713,0,0,1,5.722-.45c0.259-.026.676,0.089,0.54,0.435a11.87,11.87,0,0,1-1.836,3.13,53.092,53.092,0,0,0,6.961-3.729,2.738,2.738,0,0,0,1.339-1.545,0.989,0.989,0,0,0-.713-0.461h0ZM730,664.878c-8.13,2.1-16.245,4.265-24.375,6.359a1.239,1.239,0,0,0-1.1.517l0.357-.3a5.368,5.368,0,0,0,1.571-.167c6.093-1.072,12.192-2.1,18.289-3.147-0.172.732-.342,1.462-0.48,2.2a140.268,140.268,0,0,0-14.583,7.14c-2.881,1.741-5.857,3.524-8.043,6.15a63.348,63.348,0,0,1,8.868-5.151c5.069-2.592,10.242-4.968,15.433-7.295a1.294,1.294,0,0,0,.541-0.586q1.748-2.867,3.517-5.718h0Zm-12.164,2.3c-0.224-.018-0.451-0.036-0.678-0.05-5.4.813-10.855,1.367-16.269,2.112a77.414,77.414,0,0,1-6.915,8.88,4.8,4.8,0,0,1-2.762,1.206c-5.576,1.3-11.2,2.371-16.793,3.559-1.283,1.018-2.53,2.088-3.774,3.157,2.136-.679,4.136-1.847,6.385-2.108,5.916-1,11.826-2.026,17.742-3.028q3.855-4.836,7.718-9.669a1.22,1.22,0,0,1,.7-0.311c4.891-1.225,9.758-2.539,14.648-3.748h0Zm-78.374,3.46a5.176,5.176,0,0,0-4.178,2.405,11.615,11.615,0,0,0-1.49,6.814q7.533-1.139,15.072-2.254a7.182,7.182,0,0,1,2.445.353c7.293,1.647,14.572,3.354,21.869,4.978-7.528-2.637-15.128-5.077-22.674-7.667a4.32,4.32,0,0,0-2.042.143c-4.247.745-8.49,1.508-12.737,2.25-0.251-2.793,1.071-5.892,3.735-7.022h0Zm80.4,5.181-0.415.217c-3.178,1.341-6.306,2.8-9.463,4.187,3.916,3.2,7.9,6.313,11.854,9.461-2.65-2.94-5.512-5.68-8.178-8.609,2.064-1.756,4.193-3.439,6.2-5.256h0Zm-87.572,0c-2.7,3.737-7.068,5.863-11.487,6.66-1,1.826-1.922,3.7-2.864,5.558a31.72,31.72,0,0,0,9.526-4.822c2.345-1.815,4.491-4.316,4.825-7.4h0Zm46.755,15.013c-8.772-2.226-17.5-4.655-26.256-6.955l-0.4-.037c-6.263.822-12.522,1.672-18.783,2.5-3.808.481-7.6,1.069-11.419,1.462a23.543,23.543,0,0,0,3.176-.071q13.289-.744,26.572-1.5a9.856,9.856,0,0,1,1.933.247c7.569,1.353,15.141,2.682,22.711,4.037a9.843,9.843,0,0,0,2.469.313h0Zm20.63-5.81c-3.469,1.035-6.874,2.285-10.321,3.391-2.964,1.009-5.946,1.965-8.906,2.987,2.7,2.445,5.362,4.938,8.08,7.362-1.017-1.747-2.162-3.412-3.225-5.133a9.584,9.584,0,0,1-1.027-1.76c5.161-2.211,10.272-4.548,15.4-6.847h0Zm-47.42,2.729a5.161,5.161,0,0,0-1.42-.076c-8.724.523-17.459,0.914-26.178,1.494a44.418,44.418,0,0,1,8.593,5.94,30.571,30.571,0,0,1,7.6,9.8,1.713,1.713,0,0,0-.286-1.091,31.514,31.514,0,0,0-8.03-11.717c-0.628-.675-1.429-1.16-2.026-1.859q10.611-.657,21.229-1.258c4.714,0.451,9.437.9,14.145,1.387a5.072,5.072,0,0,0-1.73-.394c-3.959-.759-7.932-1.469-11.893-2.223h0Zm57.036,5.007a17.638,17.638,0,0,0-6.521.4c0.574,1.211,1.052,2.466,1.575,3.7a18.912,18.912,0,0,1,19.816,11.263,17.651,17.651,0,0,0-4.515-9.949,17.2,17.2,0,0,0-10.355-5.41h0Zm-76.752,5.029a14.814,14.814,0,0,0-9.6-3.176A15.13,15.13,0,0,0,611,700.958a5.72,5.72,0,0,0,1.444,1.269,17.1,17.1,0,0,1,6.586-3.484,16.561,16.561,0,0,1,9.862.419,16.018,16.018,0,0,1,9.158,8.379c0.042,0.152.122,0.458,0.164,0.612,0.022-.1.067-0.3,0.091-0.4a15.461,15.461,0,0,0-5.765-9.957h0Z" transform="translate(-611 -663.156)"/>
</svg>
